# xmcd
#
# Track frame offsets:
#	150
#	4780
#	25143
#	35875
#	52583
#	67128
#	91605
#	104205
#	126168
#	158565
#	180398
#	195440
#	203625
#	216043
#	234393
#	243725
#	261548
#	276590
#
# Disc length: 3961 seconds
#
# Revision: 3
# Processed by: cddbd v1.5.2PL0 Copyright (c) Steve Scherf et al.
# Submitted via: ExactAudioCopy v0.95a5
#
DISCID=000f7712
DTITLE=Various Artist - A World Out of Time Vol 1 - Henry Kaiser and David Lindley in Madagascar
DYEAR=1992
DGENRE=Misc
TTITLE0=Ramilison - Kabary
TTITLE1=Rossy - Ambilanao Zaho
TTITLE2=Tarika Sammy - Fanaon'ny Ankizy
TTITLE3=Mahaleo - Dihy
TTITLE4=Voninavoko - Hitondray Tsikitsiky
TTITLE5=Roger Georges - Aza Mamaraha (With Henry Kaiser and David Lindley)
TTITLE6=Tarika Rakoto Frah - the Rakoto Frah Two-Step
TTITLE7=Sylvestre Randafison - Izahay Sy I Malala
TTITLE8=Mahaleo - Kobaka
TTITLE9=Tarika Sammy - Hana
TTITLE10=Voninavoko - Lalatiana
TTITLE11=Mama Sana - Lemavo
TTITLE12=Tarika Ramilison - Manana Faharetana
TTITLE13=Tarika Sammy - Voromby
TTITLE14=Tovo - Tadiavo Jeso
TTITLE15=Rakoto Frah - Mangina Mangina
TTITLE16=D'gary - Vavarano
TTITLE17=Rossy - I Fought the Law
EXTD=
EXTT0=
EXTT1=
EXTT2=
EXTT3=
EXTT4=
EXTT5=
EXTT6=
EXTT7=
EXTT8=
EXTT9=
EXTT10=
EXTT11=
EXTT12=
EXTT13=
EXTT14=
EXTT15=
EXTT16=
EXTT17=
PLAYORDER=
